<svg xmlns="http://www.w3.org/2000/svg" version="1.1" xmlns:xlink="http://www.w3.org/1999/xlink" width="1000" height="1000"><metadata><rdf:RDF xmlns:rdf="http://www.w3.org/1999/02/22-rdf-syntax-ns#" xmlns:dc="http://purl.org/dc/elements/1.1/"><rdf:Description><dc:creator>RealFaviconGenerator</dc:creator><dc:source>https://realfavicongenerator.net</dc:source></rdf:Description></rdf:RDF></metadata><g clip-path="url(#SvgjsClipPath1253)"><rect width="1000" height="1000" fill="#8b5cf6"></rect><g transform="matrix(1,0,0,1,100,100)"><svg xmlns="http://www.w3.org/2000/svg" width="800px" height="800px" viewBox="0 0 24 24" fill="none"><path d="M3 9H21M7 3V5M17 3V5M6 13H8M6 17H8M11 13H13M11 17H13M16 13H18M16 17H18M6.2 21H17.8C18.9201 21 19.4802 21 19.908 20.782C20.2843 20.5903 20.5903 20.2843 20.782 19.908C21 19.4802 21 18.9201 21 17.8V8.2C21 7.07989 21 6.51984 20.782 6.09202C20.5903 5.71569 20.2843 5.40973 19.908 5.21799C19.4802 5 18.9201 5 17.8 5H6.2C5.0799 5 4.51984 5 4.09202 5.21799C3.71569 5.40973 3.40973 5.71569 3.21799 6.09202C3 6.51984 3 7.07989 3 8.2V17.8C3 18.9201 3 19.4802 3.21799 19.908C3.40973 20.2843 3.71569 20.5903 4.09202 20.782C4.51984 21 5.07989 21 6.2 21Z" stroke="#000000" stroke-width="2" stroke-linecap="round" stroke-linejoin="round"></path></svg></g></g><defs><clipPath id="SvgjsClipPath1253"><rect width="1000" height="1000" x="0" y="0" rx="400" ry="400"></rect></clipPath></defs></svg>